<svg height="410pt" viewBox="0 0 410 410.00006" width="410pt" xmlns="http://www.w3.org/2000/svg"><path d="m401.789062 40.640625c0 18.027344-14.613281 32.640625-32.640624 32.640625-18.023438 0-32.636719-14.613281-32.636719-32.640625s14.613281-32.640625 32.636719-32.640625c18.027343 0 32.640624 14.613281 32.640624 32.640625zm0 0" fill="#00efd1"/><path d="m392.789062 130.640625c0 18.027344-14.613281 32.640625-32.640624 32.640625-18.023438 0-32.636719-14.613281-32.636719-32.640625s14.613281-32.640625 32.636719-32.640625c18.027343 0 32.640624 14.613281 32.640624 32.640625zm0 0" fill="#00acea"/><path d="m372.789062 230.640625c0 18.027344-14.613281 32.640625-32.640624 32.640625-18.023438 0-32.636719-14.613281-32.636719-32.640625s14.613281-32.640625 32.636719-32.640625c18.027343 0 32.640624 14.613281 32.640624 32.640625zm0 0" fill="#00acea"/><path d="m352.789062 320.640625c0 18.027344-14.613281 32.640625-32.640624 32.640625-18.023438 0-32.636719-14.613281-32.636719-32.640625s14.613281-32.640625 32.636719-32.640625c18.027343 0 32.640624 14.613281 32.640624 32.640625zm0 0" fill="#fedb41"/><path d="m315.789062 73.640625c0 18.027344-14.613281 32.640625-32.640624 32.640625-18.023438 0-32.636719-14.613281-32.636719-32.640625s14.613281-32.640625 32.636719-32.640625c18.027343 0 32.640624 14.613281 32.640624 32.640625zm0 0" fill="#00acea"/><path d="m292.789062 180.640625c0 18.027344-14.613281 32.640625-32.640624 32.640625-18.023438 0-32.636719-14.613281-32.636719-32.640625s14.613281-32.640625 32.636719-32.640625c18.027343 0 32.640624 14.613281 32.640624 32.640625zm0 0" fill="#fedb41"/><path d="m272.789062 270.640625c0 18.027344-14.613281 32.640625-32.640624 32.640625-18.023438 0-32.636719-14.613281-32.636719-32.640625s14.613281-32.640625 32.636719-32.640625c18.027343 0 32.640624 14.613281 32.640624 32.640625zm0 0" fill="#00efd1"/><path d="m232.789062 100.640625c0 18.027344-14.613281 32.640625-32.640624 32.640625-18.023438 0-32.636719-14.613281-32.636719-32.640625s14.613281-32.640625 32.636719-32.640625c18.027343 0 32.640624 14.613281 32.640624 32.640625zm0 0" fill="#fedb41"/><path d="m192.789062 200.640625c0 18.027344-14.613281 32.640625-32.640624 32.640625-18.023438 0-32.636719-14.613281-32.636719-32.640625s14.613281-32.640625 32.636719-32.640625c18.027343 0 32.640624 14.613281 32.640624 32.640625zm0 0" fill="#00acea"/><path d="m182.789062 300.640625c0 18.027344-14.613281 32.640625-32.640624 32.640625-18.023438 0-32.636719-14.613281-32.636719-32.640625s14.613281-32.640625 32.636719-32.640625c18.027343 0 32.640624 14.613281 32.640624 32.640625zm0 0" fill="#00acea"/><path d="m132.789062 130.640625c0 18.027344-14.613281 32.640625-32.640624 32.640625-18.023438 0-32.636719-14.613281-32.636719-32.640625s14.613281-32.640625 32.636719-32.640625c18.027343 0 32.640624 14.613281 32.640624 32.640625zm0 0" fill="#00efd1"/><path d="m102.789062 240.640625c0 18.027344-14.613281 32.640625-32.640624 32.640625-18.023438 0-32.636719-14.613281-32.636719-32.640625s14.613281-32.640625 32.636719-32.640625c18.027343 0 32.640624 14.613281 32.640624 32.640625zm0 0" fill="#00efd1"/><path d="m102.789062 339.640625c0 18.027344-14.613281 32.640625-32.640624 32.640625-18.023438 0-32.636719-14.613281-32.636719-32.640625s14.613281-32.640625 32.636719-32.640625c18.027343 0 32.640624 14.613281 32.640624 32.640625zm0 0" fill="#fedb41"/><g fill="#083863"><path d="m8 20.519531c-4.417969 0-8 3.582031-8 8v373.480469c.0976562 4.457031 3.75 8.015625 8.210938 8h377.949218c4.417969 0 8-3.582031 8-8s-3.582031-8-8-8h-370.160156v-365.480469c0-4.417969-3.582031-8-8-8zm0 0"/><path d="m100.148438 90c-22.441407 0-40.636719 18.195312-40.636719 40.640625s18.195312 40.640625 40.636719 40.640625c22.445312 0 40.640624-18.195312 40.640624-40.640625-.023437-22.433594-18.203124-40.617187-40.640624-40.640625zm0 65.28125c-13.605469 0-24.636719-11.03125-24.636719-24.640625s11.03125-24.640625 24.636719-24.640625c13.609374 0 24.640624 11.03125 24.640624 24.640625-.015624 13.601563-11.035156 24.625-24.640624 24.640625zm0 0"/><path d="m29.511719 240.640625c0 22.445313 18.195312 40.640625 40.636719 40.640625 22.445312 0 40.640624-18.195312 40.640624-40.640625s-18.195312-40.640625-40.640624-40.640625c-22.433594.023438-40.613282 18.207031-40.636719 40.640625zm40.636719-24.640625c13.609374 0 24.640624 11.03125 24.640624 24.640625s-11.03125 24.640625-24.640624 24.640625c-13.605469 0-24.636719-11.03125-24.636719-24.640625.015625-13.601563 11.035156-24.625 24.636719-24.640625zm0 0"/><path d="m119.511719 200.640625c0 22.445313 18.195312 40.640625 40.636719 40.640625 22.445312 0 40.640624-18.195312 40.640624-40.640625s-18.195312-40.640625-40.640624-40.640625c-22.433594.023438-40.613282 18.207031-40.636719 40.640625zm40.636719-24.640625c13.609374 0 24.640624 11.03125 24.640624 24.640625s-11.03125 24.640625-24.640624 24.640625c-13.605469 0-24.636719-11.03125-24.636719-24.640625.015625-13.601563 11.035156-24.625 24.636719-24.640625zm0 0"/><path d="m150.148438 260c-22.441407 0-40.636719 18.195312-40.636719 40.640625s18.195312 40.640625 40.636719 40.640625c22.445312 0 40.640624-18.195312 40.640624-40.640625-.023437-22.433594-18.203124-40.617187-40.640624-40.640625zm0 65.28125c-13.605469 0-24.636719-11.03125-24.636719-24.640625s11.03125-24.640625 24.636719-24.640625c13.609374 0 24.640624 11.03125 24.640624 24.640625-.015624 13.601563-11.035156 24.625-24.640624 24.640625zm0 0"/><path d="m240.148438 230c-22.441407 0-40.636719 18.195312-40.636719 40.640625s18.195312 40.640625 40.636719 40.640625c22.445312 0 40.640624-18.195312 40.640624-40.640625-.023437-22.433594-18.203124-40.617187-40.640624-40.640625zm0 65.28125c-13.605469 0-24.636719-11.03125-24.636719-24.640625s11.03125-24.640625 24.636719-24.640625c13.609374 0 24.640624 11.03125 24.640624 24.640625-.015624 13.601563-11.035156 24.625-24.640624 24.640625zm0 0"/><path d="m219.511719 180.640625c0 22.445313 18.195312 40.640625 40.636719 40.640625 22.445312 0 40.640624-18.195312 40.640624-40.640625s-18.195312-40.640625-40.640624-40.640625c-22.433594.023438-40.613282 18.207031-40.636719 40.640625zm40.636719-24.640625c13.609374 0 24.640624 11.03125 24.640624 24.640625s-11.03125 24.640625-24.640624 24.640625c-13.605469 0-24.636719-11.03125-24.636719-24.640625.015625-13.601563 11.035156-24.625 24.636719-24.640625zm0 0"/><path d="m200.148438 60c-22.441407 0-40.636719 18.195312-40.636719 40.640625s18.195312 40.640625 40.636719 40.640625c22.445312 0 40.640624-18.195312 40.640624-40.640625-.023437-22.433594-18.203124-40.617187-40.640624-40.640625zm0 65.28125c-13.605469 0-24.636719-11.03125-24.636719-24.640625s11.03125-24.640625 24.636719-24.640625c13.609374 0 24.640624 11.03125 24.640624 24.640625-.015624 13.601563-11.035156 24.625-24.640624 24.640625zm0 0"/><path d="m283.148438 33c-22.441407 0-40.636719 18.195312-40.636719 40.640625s18.195312 40.640625 40.636719 40.640625c22.445312 0 40.640624-18.195312 40.640624-40.640625-.023437-22.433594-18.203124-40.617187-40.640624-40.640625zm0 65.28125c-13.605469 0-24.636719-11.03125-24.636719-24.640625s11.03125-24.640625 24.636719-24.640625c13.609374 0 24.640624 11.03125 24.640624 24.640625-.015624 13.601563-11.035156 24.625-24.640624 24.640625zm0 0"/><path d="m360.148438 171.28125c22.445312 0 40.640624-18.195312 40.640624-40.640625s-18.195312-40.640625-40.640624-40.640625c-22.441407 0-40.636719 18.195312-40.636719 40.640625.023437 22.433594 18.203125 40.613281 40.636719 40.640625zm0-65.28125c13.609374 0 24.640624 11.03125 24.640624 24.640625s-11.03125 24.640625-24.640624 24.640625c-13.605469 0-24.636719-11.03125-24.636719-24.640625.015625-13.601563 11.035156-24.625 24.636719-24.640625zm0 0"/><path d="m369.148438 81.28125c22.445312 0 40.640624-18.195312 40.640624-40.640625s-18.195312-40.640625-40.640624-40.640625c-22.441407 0-40.636719 18.195312-40.636719 40.640625.023437 22.433594 18.203125 40.613281 40.636719 40.640625zm0-65.28125c13.609374 0 24.640624 11.03125 24.640624 24.640625s-11.03125 24.640625-24.640624 24.640625c-13.605469 0-24.636719-11.03125-24.636719-24.640625.015625-13.601563 11.035156-24.625 24.636719-24.640625zm0 0"/><path d="m380.789062 230.640625c0-22.445313-18.195312-40.640625-40.640624-40.640625-22.441407 0-40.636719 18.195312-40.636719 40.640625s18.195312 40.640625 40.636719 40.640625c22.4375-.027344 40.617187-18.207031 40.640624-40.640625zm-40.640624 24.640625c-13.605469 0-24.636719-11.03125-24.636719-24.640625s11.03125-24.640625 24.636719-24.640625c13.609374 0 24.640624 11.03125 24.640624 24.640625-.015624 13.601563-11.035156 24.625-24.640624 24.640625zm0 0"/><path d="m320.148438 361.28125c22.445312 0 40.640624-18.195312 40.640624-40.640625s-18.195312-40.640625-40.640624-40.640625c-22.441407 0-40.636719 18.195312-40.636719 40.640625.023437 22.433594 18.203125 40.613281 40.636719 40.640625zm0-65.28125c13.609374 0 24.640624 11.03125 24.640624 24.640625s-11.03125 24.640625-24.640624 24.640625c-13.605469 0-24.636719-11.03125-24.636719-24.640625.015625-13.601563 11.035156-24.625 24.636719-24.640625zm0 0"/><path d="m70.148438 380.28125c22.445312 0 40.640624-18.195312 40.640624-40.640625s-18.195312-40.640625-40.640624-40.640625c-22.441407 0-40.636719 18.195312-40.636719 40.640625.023437 22.433594 18.203125 40.613281 40.636719 40.640625zm0-65.28125c13.609374 0 24.640624 11.03125 24.640624 24.640625s-11.03125 24.640625-24.640624 24.640625c-13.605469 0-24.636719-11.03125-24.636719-24.640625.015625-13.601563 11.035156-24.625 24.636719-24.640625zm0 0"/></g></svg>